<?xml version="1.0" encoding="UTF-8" standalone="no"?>
<!DOCTYPE svg PUBLIC "-//W3C//DTD SVG 1.1//EN" "http://www.w3.org/Graphics/SVG/1.1/DTD/svg11.dtd">
<svg width="100%" height="100%" viewBox="0 0 201 310" version="1.1" xmlns="http://www.w3.org/2000/svg" xmlns:xlink="http://www.w3.org/1999/xlink" xml:space="preserve" xmlns:serif="http://www.serif.com/" style="fill-rule:evenodd;clip-rule:evenodd;stroke-linecap:round;stroke-linejoin:round;stroke-miterlimit:10;">
    <g transform="matrix(1,0,0,1,-867,-385)">
        <clipPath id="_clip1">
            <rect x="933.333" y="386.891" width="32" height="133.109"/>
        </clipPath>
        <g clip-path="url(#_clip1)">
            <path d="M964.203,504.74C964.203,513.016 957.469,519.734 949.167,519.734C940.854,519.734 934.12,513.016 934.12,504.74L934.12,401.87C934.12,393.589 940.854,386.875 949.167,386.875C957.469,386.875 964.203,393.589 964.203,401.87L964.203,504.74" style="fill:rgb(246,178,141);fill-rule:nonzero;"/>
        </g>
    </g>
    <g transform="matrix(1,0,0,1,-867,-385)">
        <clipPath id="_clip2">
            <rect x="938.667" y="637.333" width="119.63" height="56.557"/>
        </clipPath>
        <g clip-path="url(#_clip2)">
            <path d="M1058.08,693.906L938.682,693.906L938.682,638.156L1058.08,638.156L1058.08,693.906" style="fill:rgb(23,54,81);fill-rule:nonzero;"/>
        </g>
    </g>
    <g transform="matrix(1,0,0,1,-867,-385)">
        <path d="M1044.88,666.036C1044.88,670.172 1041.52,673.526 1037.36,673.526C1033.2,673.526 1029.83,670.172 1029.83,666.036C1029.83,661.891 1033.2,658.531 1037.36,658.531C1041.52,658.531 1044.88,661.891 1044.88,666.036" style="fill:white;fill-rule:nonzero;"/>
    </g>
    <g transform="matrix(1,0,0,1,-867,-385)">
        <path d="M994.286,540.547C994.286,548.839 987.552,555.557 979.255,555.557C970.938,555.557 964.203,548.839 964.203,540.547L964.203,473.125C964.203,464.849 970.938,463.052 979.255,463.052C987.552,463.052 994.286,464.849 994.286,473.125L994.286,540.547" style="fill:rgb(246,178,141);fill-rule:nonzero;"/>
    </g>
    <g transform="matrix(1,0,0,1,-867,-385)">
        <path d="M1024.37,535.625C1024.37,543.901 1017.62,550.62 1009.32,550.62C1001.02,550.62 994.286,543.901 994.286,535.625L994.286,478.047C994.286,469.771 1001.02,466.797 1009.32,466.797C1017.62,466.797 1024.37,469.771 1024.37,478.047L1024.37,535.625" style="fill:rgb(246,178,141);fill-rule:nonzero;"/>
    </g>
    <g transform="matrix(1,0,0,1,-867,-385)">
        <path d="M1054.45,555.214C1054.45,563.51 1047.72,570.224 1039.41,570.224C1031.1,570.224 1024.37,563.51 1024.37,555.214L1024.37,486.542C1024.37,478.266 1031.1,474.594 1039.41,474.594C1047.72,474.594 1054.45,478.266 1054.45,486.542L1054.45,555.214" style="fill:rgb(246,178,141);fill-rule:nonzero;"/>
    </g>
    <g transform="matrix(7e-18,-0.116053,-0.116364,-7e-18,426.142,484.363)">
        <path d="M3427.87,2826.8L3314.02,2826.8" style="fill:none;fill-rule:nonzero;stroke:rgb(221,141,108);stroke-width:26.67px;"/>
    </g>
    <g transform="matrix(7e-18,-0.116053,-0.116364,-7e-18,426.142,484.363)">
        <path d="M3401.62,2568.27L3287.85,2568.27" style="fill:none;fill-rule:nonzero;stroke:rgb(221,141,108);stroke-width:26.67px;"/>
    </g>
    <g transform="matrix(7e-18,-0.116053,-0.116364,-7e-18,426.142,484.363)">
        <path d="M3329.99,2309.75L3241.18,2309.75" style="fill:none;fill-rule:nonzero;stroke:rgb(221,141,108);stroke-width:26.67px;"/>
    </g>
    <g transform="matrix(1,0,0,1,-867,-385)">
        <path d="M919.193,586.766C919.193,586.766 932.302,606.635 949.167,618.146L949.167,638.156L1045.64,638.156L1045.64,616.938C1045.64,616.938 1052.93,612.094 1054.45,598.755L1054.45,506.036L934.12,506.036L934.12,523.495C934.12,523.495 929.714,540.609 923.198,533.646L923.198,533.224C923.198,533.224 909.964,507.167 881.74,505.62C881.74,505.62 861.552,507.448 871.005,521.297L881.99,532.87L919.193,586.766" style="fill:rgb(246,178,141);fill-rule:nonzero;"/>
    </g>
</svg>
