<?xml version="1.0" encoding="UTF-8" standalone="no"?>
<!DOCTYPE svg PUBLIC "-//W3C//DTD SVG 1.1//EN" "http://www.w3.org/Graphics/SVG/1.1/DTD/svg11.dtd">
<svg width="100%" height="100%" viewBox="0 0 140 302" version="1.1" xmlns="http://www.w3.org/2000/svg" xmlns:xlink="http://www.w3.org/1999/xlink" xml:space="preserve" xmlns:serif="http://www.serif.com/" style="fill-rule:evenodd;clip-rule:evenodd;stroke-linejoin:round;stroke-miterlimit:2;">
    <g transform="matrix(1,0,0,1,-893,-392)">
        <path d="M1029.46,532.573C1031.77,495.974 1027.67,459.198 1017.3,423.927C1011.18,408.188 1001.18,413.833 1001.28,413.771C991.557,419.339 995.552,430.917 995.495,430.964C1003.97,463.172 1006.83,496.422 1004.07,529.234C1004.18,529.234 1003.2,543.365 1014.36,544.276C1014.28,544.203 1024.8,547.354 1029.46,532.573" style="fill:rgb(223,152,120);fill-rule:nonzero;"/>
    </g>
    <g transform="matrix(1,0,0,1,-893,-392)">
        <path d="M1028.8,533.271C1024.2,488.521 1011.8,444.865 992.115,404.323C981.531,386.526 970.583,395.385 970.672,395.292C960.047,403.995 967.234,417.203 967.156,417.266C983.953,454.516 994.12,494.146 997.422,534.396C997.542,534.365 999.224,551.672 1012.91,550.495C1012.8,550.417 1026.14,552.104 1028.8,533.271" style="fill:rgb(227,159,133);fill-rule:nonzero;"/>
    </g>
    <g transform="matrix(1,0,0,1,-893,-392)">
        <path d="M1019.17,527.5C1008.03,483.927 989.354,442.594 963.917,405.391C950.823,389.354 941.302,399.745 941.365,399.635C932.141,409.828 941.198,421.813 941.135,421.885C963.224,456.245 979.109,493.948 988.302,533.255C988.411,533.224 992.641,550.078 1006,546.891C1005.88,546.828 1019.32,546.536 1019.17,527.5" style="fill:rgb(236,168,137);fill-rule:nonzero;"/>
    </g>
    <g transform="matrix(1,0,0,1,-893,-392)">
        <path d="M1032.45,692.339L921.484,692.339L921.484,640.24L1032.45,640.24L1032.45,692.339" style="fill:rgb(23,54,81);fill-rule:nonzero;"/>
    </g>
    <g transform="matrix(1,0,0,1,-893,-392)">
        <path d="M1020.17,666.281C1020.17,670.161 1017.04,673.286 1013.18,673.286C1009.33,673.286 1006.18,670.161 1006.18,666.281C1006.18,662.417 1009.33,659.276 1013.18,659.276C1017.04,659.276 1020.17,662.417 1020.17,666.281" style="fill:white;fill-rule:nonzero;"/>
    </g>
    <g transform="matrix(1,0,0,1,-893,-392)">
        <path d="M897.99,583.26C908.172,569.854 938.495,571.198 938.99,571.214C1000.75,555.906 978.203,498.276 978.203,498.276C956.62,471.708 936.401,486.073 936.401,486.073C913.708,502.854 896.865,486.073 896.865,486.073C893.271,480.182 897.391,477.031 897.391,477.031L935.427,447.818C935.427,447.818 947.875,436.932 956.62,444.802L1015.16,475.5C1015.16,475.5 1024.97,486.786 1028.03,499.974C1033.42,515.365 1030.91,527.469 1030.91,527.469L1013.18,606.021L1019.17,640.24L947.891,640.24L947.891,619.875C942.906,610.026 939.5,607.505 934.271,601.802L920.99,601.771L901.63,602.344C886.422,601.385 897.99,583.26 897.99,583.26" style="fill:rgb(246,178,141);fill-rule:nonzero;"/>
    </g>
</svg>
